<svg width="32" height="32" viewBox="0 0 250 267" fill="none" xmlns="http://www.w3.org/2000/svg">
<g clip-path="url(#clip0_43_600)">
<rect width="250" height="267" rx="20" fill="black"/>
<mask id="path-2-inside-1_43_600" fill="white">
<path d="M0 196H250V269H0V196Z"/>
</mask>
<path d="M0 196H250V269H0V196Z" fill="#3772FF"/>
<path d="M0 198H250V194H0V198Z" fill="white" mask="url(#path-2-inside-1_43_600)"/>
<path d="M53.25 251H41.5795V213.182H53.767C57.4356 213.182 60.5748 213.939 63.1847 215.453C65.7945 216.955 67.795 219.116 69.1861 221.935C70.5772 224.741 71.2727 228.102 71.2727 232.017C71.2727 235.956 70.571 239.348 69.1676 242.192C67.7642 245.023 65.7206 247.202 63.0369 248.729C60.3532 250.243 57.0909 251 53.25 251ZM46.1591 246.938H52.9545C56.0814 246.938 58.6728 246.334 60.7287 245.128C62.7846 243.921 64.3172 242.204 65.3267 239.976C66.3362 237.748 66.8409 235.095 66.8409 232.017C66.8409 228.964 66.3423 226.336 65.3452 224.132C64.348 221.916 62.8584 220.217 60.8764 219.036C58.8944 217.841 56.4261 217.244 53.4716 217.244H46.1591V246.938ZM83.5341 213.182V251H78.9545V213.182H83.5341ZM92.7163 251V213.182H115.54V217.244H97.2958V230.023H114.358V234.085H97.2958V246.938H115.836V251H92.7163ZM144.476 222.636C144.255 220.765 143.356 219.312 141.78 218.278C140.204 217.244 138.272 216.727 135.982 216.727C134.308 216.727 132.843 216.998 131.587 217.54C130.344 218.081 129.371 218.826 128.669 219.774C127.98 220.722 127.635 221.799 127.635 223.006C127.635 224.015 127.875 224.883 128.355 225.609C128.848 226.323 129.476 226.92 130.239 227.401C131.002 227.868 131.802 228.256 132.64 228.564C133.477 228.859 134.246 229.099 134.948 229.284L138.789 230.318C139.774 230.577 140.869 230.934 142.076 231.389C143.294 231.845 144.458 232.466 145.566 233.254C146.686 234.03 147.609 235.027 148.336 236.246C149.062 237.464 149.425 238.96 149.425 240.733C149.425 242.777 148.89 244.623 147.819 246.273C146.76 247.922 145.209 249.233 143.165 250.206C141.134 251.179 138.666 251.665 135.76 251.665C133.052 251.665 130.707 251.228 128.725 250.354C126.755 249.48 125.204 248.261 124.071 246.697C122.951 245.134 122.317 243.318 122.169 241.25H126.897C127.02 242.678 127.5 243.86 128.337 244.795C129.186 245.719 130.257 246.408 131.55 246.864C132.855 247.307 134.258 247.528 135.76 247.528C137.508 247.528 139.078 247.245 140.469 246.679C141.86 246.1 142.962 245.3 143.775 244.278C144.587 243.244 144.993 242.038 144.993 240.659C144.993 239.403 144.642 238.382 143.941 237.594C143.239 236.806 142.316 236.166 141.171 235.673C140.026 235.181 138.789 234.75 137.459 234.381L132.806 233.051C129.851 232.202 127.512 230.989 125.789 229.413C124.065 227.838 123.203 225.776 123.203 223.227C123.203 221.11 123.776 219.263 124.921 217.688C126.078 216.099 127.629 214.868 129.574 213.994C131.532 213.108 133.717 212.665 136.13 212.665C138.567 212.665 140.734 213.102 142.63 213.976C144.525 214.838 146.027 216.019 147.135 217.521C148.256 219.023 148.846 220.728 148.908 222.636H144.476ZM156.955 251V213.182H179.778V217.244H161.534V230.023H178.597V234.085H161.534V246.938H180.074V251H156.955ZM188.033 251V213.182H192.612V246.938H210.192V251H188.033Z" fill="white"/>
<path d="M88.7012 164V150.289H115.42C124.502 150.289 132.09 148.385 138.184 144.576C144.277 140.709 148.848 135.318 151.895 128.404C155 121.432 156.553 113.258 156.553 103.883V95.9727C156.553 86.1875 155 77.8672 151.895 71.0117C148.848 64.1562 144.365 58.9121 138.447 55.2793C132.529 51.6465 125.352 49.8301 116.914 49.8301H88.1738V36.0312H116.914C128.164 36.0312 138.008 38.4922 146.445 43.4141C154.941 48.2773 161.562 55.2207 166.309 64.2441C171.055 73.209 173.428 83.8438 173.428 96.1484V103.883C173.428 116.246 171.055 126.91 166.309 135.875C161.562 144.84 154.854 151.783 146.182 156.705C137.51 161.568 127.256 164 115.42 164H88.7012ZM97.8418 164H80.791V36.0312H97.8418V164Z" fill="#FBFCF8"/>
</g>
<defs>
<clipPath id="clip0_43_600">
<rect width="250" height="267" rx="20" fill="white"/>
</clipPath>
</defs>
</svg>
