<svg width="32" height="32" viewBox="0 0 250 267" fill="none" xmlns="http://www.w3.org/2000/svg">
<g clip-path="url(#clip0_43_569)">
<rect width="250" height="267" rx="20" fill="#FCA311"/>
<mask id="path-2-inside-1_43_569" fill="white">
<path d="M0 196H250V269H0V196Z"/>
</mask>
<path d="M0 196H250V269H0V196Z" fill="#3772FF"/>
<path d="M0 198H250V194H0V198Z" fill="white" mask="url(#path-2-inside-1_43_569)"/>
<path d="M98.5098 237.27C98.2559 239.589 97.5872 241.679 96.5039 243.541C95.4206 245.386 93.8887 246.842 91.9082 247.908C89.9277 248.975 87.4479 249.508 84.4688 249.508C81.5742 249.508 79.0436 248.805 76.877 247.4C74.7103 245.979 73.026 243.981 71.8242 241.408C70.6224 238.835 70.0215 235.831 70.0215 232.395V228.662C70.0215 225.209 70.6224 222.204 71.8242 219.648C73.043 217.076 74.7695 215.078 77.0039 213.656C79.2383 212.234 81.8789 211.523 84.9258 211.523C87.7188 211.523 90.0801 212.048 92.0098 213.098C93.9395 214.13 95.4375 215.577 96.5039 217.439C97.5872 219.301 98.2559 221.451 98.5098 223.889H93.584C93.2116 221.299 92.3822 219.259 91.0957 217.77C89.8262 216.263 87.7695 215.51 84.9258 215.51C82.7422 215.51 80.9141 216.06 79.4414 217.16C77.9688 218.243 76.8516 219.767 76.0898 221.73C75.3451 223.694 74.9727 225.988 74.9727 228.611V232.395C74.9727 234.815 75.3112 237.024 75.9883 239.021C76.6654 241.002 77.6979 242.585 79.0859 243.77C80.4909 244.954 82.2852 245.547 84.4688 245.547C86.5508 245.547 88.2012 245.217 89.4199 244.557C90.6556 243.896 91.5866 242.949 92.2129 241.713C92.8561 240.477 93.3132 238.996 93.584 237.27H98.5098ZM133.625 231.709C133.625 235.399 133.016 238.573 131.797 241.23C130.578 243.888 128.86 245.936 126.643 247.375C124.425 248.797 121.81 249.508 118.797 249.508C115.885 249.508 113.304 248.797 111.053 247.375C108.801 245.936 107.041 243.888 105.771 241.23C104.502 238.573 103.867 235.399 103.867 231.709V229.348C103.867 225.658 104.493 222.484 105.746 219.826C107.016 217.152 108.768 215.104 111.002 213.682C113.253 212.243 115.835 211.523 118.746 211.523C121.759 211.523 124.374 212.243 126.592 213.682C128.826 215.104 130.553 217.152 131.771 219.826C133.007 222.484 133.625 225.658 133.625 229.348V231.709ZM128.75 229.297C128.75 226.352 128.352 223.872 127.557 221.857C126.761 219.826 125.618 218.286 124.129 217.236C122.639 216.187 120.845 215.662 118.746 215.662C116.732 215.662 114.971 216.187 113.465 217.236C111.975 218.286 110.816 219.826 109.986 221.857C109.174 223.872 108.768 226.352 108.768 229.297V231.709C108.768 234.671 109.182 237.168 110.012 239.199C110.841 241.23 112.009 242.771 113.516 243.82C115.022 244.87 116.783 245.395 118.797 245.395C120.913 245.395 122.707 244.87 124.18 243.82C125.669 242.771 126.803 241.23 127.582 239.199C128.361 237.168 128.75 234.671 128.75 231.709V229.297ZM147.311 212.031L159.371 242.246L171.432 212.031H176.23L161.225 249H157.492L142.512 212.031H147.311ZM145.178 212.031L145.863 234.553V249H140.963V212.031H145.178ZM177.779 212.031V249H172.879V234.553L173.564 212.031H177.779Z" fill="white"/>
<path d="M173.076 147.213C171.494 149.498 168.975 152.105 165.518 155.035C162.119 157.906 157.373 160.426 151.279 162.594C145.244 164.703 137.422 165.758 127.812 165.758C117.441 165.758 108.213 163.355 100.127 158.551C92.0996 153.746 85.8008 146.803 81.2305 137.721C76.6602 128.639 74.375 117.74 74.375 105.025V94.918C74.375 82.2031 76.3672 71.334 80.3516 62.3105C84.3359 53.2285 90.1367 46.2852 97.7539 41.4805C105.43 36.6758 114.775 34.2734 125.791 34.2734C135.576 34.2734 143.779 35.9727 150.4 39.3711C157.021 42.7109 162.178 47.3398 165.869 53.2578C169.619 59.1758 172.021 65.9141 173.076 73.4727H156.025C155.264 68.8438 153.74 64.625 151.455 60.8164C149.229 56.9492 146.035 53.873 141.875 51.5879C137.715 49.2441 132.383 48.0723 125.879 48.0723C117.969 48.0723 111.465 49.9766 106.367 53.7852C101.328 57.5352 97.5781 62.8965 95.1172 69.8691C92.7148 76.8418 91.5137 85.1328 91.5137 94.7422V105.025C91.5137 114.869 93.0371 123.307 96.084 130.338C99.1309 137.311 103.379 142.672 108.828 146.422C114.277 150.172 120.635 152.047 127.9 152.047C133.936 152.047 138.799 151.549 142.49 150.553C146.24 149.498 149.17 148.268 151.279 146.861C153.389 145.396 155 144.02 156.113 142.73V113.902H126.582V100.279H173.076V147.213Z" fill="#FBFCF8"/>
</g>
<defs>
<clipPath id="clip0_43_569">
<rect width="250" height="267" rx="20" fill="white"/>
</clipPath>
</defs>
</svg>
