<svg width="32" height="32" viewBox="0 0 250 267" fill="none" xmlns="http://www.w3.org/2000/svg">
<g clip-path="url(#clip0_43_608)">
<rect width="250" height="267" rx="20" fill="#1A971E"/>
<mask id="path-2-inside-1_43_608" fill="white">
<path d="M0 196H250V269H0V196Z"/>
</mask>
<path d="M0 196H250V269H0V196Z" fill="#3772FF"/>
<path d="M0 198H250V194H0V198Z" fill="white" mask="url(#path-2-inside-1_43_608)"/>
<path d="M27.5795 251V213.182H50.4034V217.244H32.1591V230.023H49.2216V234.085H32.1591V246.938H50.6989V251H27.5795ZM56.5895 217.244V213.182H84.9531V217.244H73.0611V251H68.4815V217.244H56.5895ZM89.1541 251H84.353L98.2393 213.182H102.967L116.853 251H112.052L100.751 219.165H100.455L89.1541 251ZM90.9268 236.227H110.279V240.29H90.9268V236.227ZM152.732 213.182V251H148.3L127.692 221.307H127.323V251H122.744V213.182H127.175L147.857 242.949H148.227V213.182H152.732ZM193.805 232.091C193.805 236.08 193.085 239.527 191.645 242.432C190.204 245.337 188.228 247.578 185.717 249.153C183.206 250.729 180.337 251.517 177.112 251.517C173.886 251.517 171.018 250.729 168.507 249.153C165.995 247.578 164.02 245.337 162.579 242.432C161.139 239.527 160.419 236.08 160.419 232.091C160.419 228.102 161.139 224.655 162.579 221.75C164.02 218.845 165.995 216.604 168.507 215.028C171.018 213.453 173.886 212.665 177.112 212.665C180.337 212.665 183.206 213.453 185.717 215.028C188.228 216.604 190.204 218.845 191.645 221.75C193.085 224.655 193.805 228.102 193.805 232.091ZM189.373 232.091C189.373 228.816 188.825 226.053 187.73 223.8C186.646 221.547 185.175 219.842 183.316 218.685C181.47 217.527 179.402 216.949 177.112 216.949C174.822 216.949 172.748 217.527 170.889 218.685C169.042 219.842 167.571 221.547 166.475 223.8C165.392 226.053 164.85 228.816 164.85 232.091C164.85 235.366 165.392 238.129 166.475 240.382C167.571 242.635 169.042 244.34 170.889 245.497C172.748 246.654 174.822 247.233 177.112 247.233C179.402 247.233 181.47 246.654 183.316 245.497C185.175 244.34 186.646 242.635 187.73 240.382C188.825 238.129 189.373 235.366 189.373 232.091ZM201.505 251V213.182H206.085V246.938H223.664V251H201.505Z" fill="white"/>
<path d="M170 164H102.412V150.289H170V164ZM105.752 164H88.7012V36.0312H105.752V164ZM161.035 104.762H102.412V91.0508H161.035V104.762ZM169.121 49.8301H102.412V36.0312H169.121V49.8301Z" fill="#FBFCF8"/>
</g>
<defs>
<clipPath id="clip0_43_608">
<rect width="250" height="267" rx="20" fill="white"/>
</clipPath>
</defs>
</svg>
