<svg width="32" height="32" viewBox="0 0 250 267" fill="none" xmlns="http://www.w3.org/2000/svg">
<g clip-path="url(#clip0_43_592)">
<rect width="250" height="267" rx="20" fill="#AF2929"/>
<mask id="path-2-inside-1_43_592" fill="white">
<path d="M0 196H250V269H0V196Z"/>
</mask>
<path d="M0 196H250V269H0V196Z" fill="#3772FF"/>
<path d="M0 198H250V194H0V198Z" fill="white" mask="url(#path-2-inside-1_43_592)"/>
<path d="M88.7891 249H83.7109L97.8281 212.031H101.002V215.281L88.7891 249ZM98.9707 215.281V212.031H102.145L116.287 249H111.234L98.9707 215.281ZM110.625 239.326H89.8301V235.34H110.625V239.326ZM123.549 249V245.039H131.268C133.891 245.039 136.083 244.489 137.844 243.389C139.604 242.271 140.924 240.714 141.805 238.717C142.702 236.702 143.15 234.341 143.15 231.633V229.348C143.15 226.521 142.702 224.117 141.805 222.137C140.924 220.156 139.63 218.641 137.92 217.592C136.21 216.542 134.137 216.018 131.699 216.018H123.396V212.031H131.699C134.949 212.031 137.793 212.742 140.23 214.164C142.685 215.569 144.598 217.575 145.969 220.182C147.34 222.771 148.025 225.844 148.025 229.398V231.633C148.025 235.204 147.34 238.285 145.969 240.875C144.598 243.465 142.66 245.471 140.154 246.893C137.649 248.298 134.687 249 131.268 249H123.549ZM126.189 249H121.264V212.031H126.189V249ZM160.67 249H155.744V212.031H160.67V249Z" fill="white"/>
<path d="M173.076 147.213C171.494 149.498 168.975 152.105 165.518 155.035C162.119 157.906 157.373 160.426 151.279 162.594C145.244 164.703 137.422 165.758 127.812 165.758C117.441 165.758 108.213 163.355 100.127 158.551C92.0996 153.746 85.8008 146.803 81.2305 137.721C76.6602 128.639 74.375 117.74 74.375 105.025V94.918C74.375 82.2031 76.3672 71.334 80.3516 62.3105C84.3359 53.2285 90.1367 46.2852 97.7539 41.4805C105.43 36.6758 114.775 34.2734 125.791 34.2734C135.576 34.2734 143.779 35.9727 150.4 39.3711C157.021 42.7109 162.178 47.3398 165.869 53.2578C169.619 59.1758 172.021 65.9141 173.076 73.4727H156.025C155.264 68.8438 153.74 64.625 151.455 60.8164C149.229 56.9492 146.035 53.873 141.875 51.5879C137.715 49.2441 132.383 48.0723 125.879 48.0723C117.969 48.0723 111.465 49.9766 106.367 53.7852C101.328 57.5352 97.5781 62.8965 95.1172 69.8691C92.7148 76.8418 91.5137 85.1328 91.5137 94.7422V105.025C91.5137 114.869 93.0371 123.307 96.084 130.338C99.1309 137.311 103.379 142.672 108.828 146.422C114.277 150.172 120.635 152.047 127.9 152.047C133.936 152.047 138.799 151.549 142.49 150.553C146.24 149.498 149.17 148.268 151.279 146.861C153.389 145.396 155 144.02 156.113 142.73V113.902H126.582V100.279H173.076V147.213Z" fill="#FBFCF8"/>
</g>
<defs>
<clipPath id="clip0_43_592">
<rect width="250" height="267" rx="20" fill="white"/>
</clipPath>
</defs>
</svg>
