<svg fill="none" xmlns="http://www.w3.org/2000/svg">
    <path fill-rule="evenodd" clip-rule="evenodd" d="M6.63091 42.7973C3.15281 39.3192 3.15282 33.6801 6.63091 30.202L36.8092 0.0238581L50.3631 13.5777L33.0757 30.8648C29.9637 33.9768 29.9637 39.0225 33.0757 42.1345L50.3631 59.422L36.8092 72.9759L6.63091 42.7973ZM52.1748 88.3415L53.8323 89.9985C57.3104 93.4767 62.9495 93.4767 66.4276 89.9985L68.0645 88.3617C63.6695 92.7346 56.5614 92.7281 52.1748 88.3415ZM83.4503 72.9759L113.629 42.7973C117.107 39.3192 117.107 33.6801 113.629 30.202L83.4503 0.0238581L69.8964 13.5778L87.1839 30.8648C90.2959 33.9768 90.2959 39.0225 87.1839 42.1345L69.8964 59.422L83.4503 72.9759ZM68.0443 15.43C68.0579 15.4166 68.0711 15.4031 68.0846 15.3896L69.8964 13.5778L83.0518 26.7328L61.787 47.9976C60.8715 48.9131 59.3875 48.9131 58.4725 47.9976L48.6315 38.1571C47.7165 37.2417 47.7165 35.7576 48.6315 34.8426L68.0443 15.43ZM68.0645 -15.3621L66.4276 -16.9991C62.9495 -20.4772 57.3104 -20.4772 53.8323 -16.9991L52.1748 -15.3418C56.5614 -19.7285 63.6695 -19.7352 68.0645 -15.3621Z" fill="#080708"/>
    <path d="M48.233 -8.08568C47.318 -9.00096 47.318 -10.4849 48.233 -11.4003L56.8153 -19.9823C58.6458 -21.8129 61.6135 -21.8129 63.4444 -19.9823L72.0263 -11.4003C72.9418 -10.4849 72.9418 -9.00096 72.0263 -8.08568L61.7869 2.15365C60.8719 3.06893 59.3878 3.06893 58.4724 2.15365L48.233 -8.08568Z" fill="#3772FF"/>
    <path d="M48.2331 84.3997C47.3176 83.4842 47.3176 82.0002 48.2331 81.0852L58.4725 70.8458C59.388 69.9303 60.8715 69.9303 61.787 70.8458L72.0264 81.0852C72.9419 82.0002 72.9419 83.4842 72.0264 84.3997L63.4445 92.9816C61.6136 94.812 58.6459 94.812 56.815 92.9816L48.2331 84.3997Z" fill="#FCA311"/>
</svg>
